{
	"patcher" : 	{
		"fileversion" : 1,
		"appversion" : 		{
			"major" : 7,
			"minor" : 3,
			"revision" : 5,
			"architecture" : "x86",
			"modernui" : 1
		}
,
		"rect" : [ 34.0, 79.0, 1851.0, 944.0 ],
		"bglocked" : 1,
		"openinpresentation" : 0,
		"default_fontsize" : 12.0,
		"default_fontface" : 0,
		"default_fontname" : "Arial",
		"gridonopen" : 1,
		"gridsize" : [ 15.0, 15.0 ],
		"gridsnaponopen" : 1,
		"objectsnaponopen" : 1,
		"statusbarvisible" : 2,
		"toolbarvisible" : 1,
		"lefttoolbarpinned" : 0,
		"toptoolbarpinned" : 0,
		"righttoolbarpinned" : 0,
		"bottomtoolbarpinned" : 0,
		"toolbars_unpinned_last_save" : 0,
		"tallnewobj" : 0,
		"boxanimatetime" : 200,
		"enablehscroll" : 1,
		"enablevscroll" : 1,
		"devicewidth" : 0.0,
		"description" : "",
		"digest" : "",
		"tags" : "",
		"style" : "",
		"subpatcher_template" : "",
		"boxes" : [ 			{
				"box" : 				{
					"annotation" : "## View or monitor a video input ##",
					"bgmode" : 1,
					"border" : 0,
					"clickthrough" : 0,
					"enablehscroll" : 0,
					"enablevscroll" : 0,
					"id" : "obj-42",
					"lockeddragscroll" : 0,
					"maxclass" : "bpatcher",
					"name" : "vz.viewr.maxpat",
					"numinlets" : 1,
					"numoutlets" : 0,
					"offset" : [ 0.0, 0.0 ],
					"patching_rect" : [ 595.0, 1181.0, 221.199997, 208.399994 ],
					"prototypename" : "pixl",
					"varname" : "viewr",
					"viewvisibility" : 1
				}

			}
, 			{
				"box" : 				{
					"annotation" : "## Use functions to map R, G, and B video parts ##",
					"bgmode" : 1,
					"border" : 0,
					"clickthrough" : 0,
					"enablehscroll" : 0,
					"enablevscroll" : 0,
					"id" : "obj-43",
					"lockeddragscroll" : 0,
					"maxclass" : "bpatcher",
					"name" : "vz.mappr.maxpat",
					"numinlets" : 4,
					"numoutlets" : 1,
					"offset" : [ 0.0, 0.0 ],
					"outlettype" : [ "jit_matrix" ],
					"patching_rect" : [ 595.0, 1042.0, 388.0, 130.0 ],
					"prototypename" : "pixl",
					"varname" : "mappr",
					"viewvisibility" : 1
				}

			}
, 			{
				"box" : 				{
					"annotation" : "## Video function generator ##",
					"bgmode" : 1,
					"border" : 0,
					"clickthrough" : 0,
					"enablehscroll" : 0,
					"enablevscroll" : 0,
					"id" : "obj-44",
					"lockeddragscroll" : 0,
					"maxclass" : "bpatcher",
					"name" : "vz.patternizr.maxpat",
					"numinlets" : 11,
					"numoutlets" : 1,
					"offset" : [ 0.0, 0.0 ],
					"outlettype" : [ "" ],
					"patching_rect" : [ 595.0, 827.0, 248.0, 190.0 ],
					"prototypename" : "pixl",
					"varname" : "patternizr",
					"viewvisibility" : 1
				}

			}
, 			{
				"box" : 				{
					"color" : [ 0.109078, 0.481945, 0.537541, 1.0 ],
					"id" : "obj-45",
					"linecount" : 2,
					"maxclass" : "newobj",
					"numinlets" : 1,
					"numoutlets" : 1,
					"outlettype" : [ "" ],
					"patcher" : 					{
						"fileversion" : 1,
						"appversion" : 						{
							"major" : 7,
							"minor" : 3,
							"revision" : 5,
							"architecture" : "x86",
							"modernui" : 1
						}
,
						"rect" : [ 34.0, 34.0, 640.0, 480.0 ],
						"bglocked" : 0,
						"openinpresentation" : 0,
						"default_fontsize" : 12.0,
						"default_fontface" : 0,
						"default_fontname" : "Arial",
						"gridonopen" : 1,
						"gridsize" : [ 15.0, 15.0 ],
						"gridsnaponopen" : 1,
						"objectsnaponopen" : 1,
						"statusbarvisible" : 2,
						"toolbarvisible" : 1,
						"lefttoolbarpinned" : 0,
						"toptoolbarpinned" : 0,
						"righttoolbarpinned" : 0,
						"bottomtoolbarpinned" : 0,
						"toolbars_unpinned_last_save" : 0,
						"tallnewobj" : 0,
						"boxanimatetime" : 200,
						"enablehscroll" : 1,
						"enablevscroll" : 1,
						"devicewidth" : 0.0,
						"description" : "",
						"digest" : "",
						"tags" : "",
						"style" : "",
						"subpatcher_template" : "",
						"boxes" : [ 							{
								"box" : 								{
									"id" : "obj-1",
									"maxclass" : "newobj",
									"numinlets" : 2,
									"numoutlets" : 1,
									"outlettype" : [ "signal" ],
									"patching_rect" : [ 50.0, 105.0, 42.0, 22.0 ],
									"style" : "",
									"text" : "*~ 0.5"
								}

							}
, 							{
								"box" : 								{
									"format" : 6,
									"id" : "obj-45",
									"maxclass" : "flonum",
									"numinlets" : 1,
									"numoutlets" : 2,
									"outlettype" : [ "", "bang" ],
									"parameter_enable" : 0,
									"patching_rect" : [ 50.0, 185.0, 50.0, 22.0 ],
									"style" : ""
								}

							}
, 							{
								"box" : 								{
									"id" : "obj-44",
									"maxclass" : "newobj",
									"numinlets" : 2,
									"numoutlets" : 1,
									"outlettype" : [ "float" ],
									"patching_rect" : [ 50.0, 150.0, 77.0, 22.0 ],
									"style" : "",
									"text" : "peakamp~ 2"
								}

							}
, 							{
								"box" : 								{
									"comment" : "",
									"id" : "obj-5",
									"index" : 1,
									"maxclass" : "inlet",
									"numinlets" : 0,
									"numoutlets" : 1,
									"outlettype" : [ "signal" ],
									"patching_rect" : [ 50.0, 45.0, 30.0, 30.0 ],
									"style" : ""
								}

							}
, 							{
								"box" : 								{
									"comment" : "",
									"id" : "obj-6",
									"index" : 1,
									"maxclass" : "outlet",
									"numinlets" : 1,
									"numoutlets" : 0,
									"patching_rect" : [ 50.0, 230.0, 30.0, 30.0 ],
									"style" : ""
								}

							}
 ],
						"lines" : [ 							{
								"patchline" : 								{
									"destination" : [ "obj-44", 0 ],
									"source" : [ "obj-1", 0 ]
								}

							}
, 							{
								"patchline" : 								{
									"destination" : [ "obj-45", 0 ],
									"source" : [ "obj-44", 0 ]
								}

							}
, 							{
								"patchline" : 								{
									"destination" : [ "obj-6", 0 ],
									"source" : [ "obj-45", 0 ]
								}

							}
, 							{
								"patchline" : 								{
									"destination" : [ "obj-1", 0 ],
									"source" : [ "obj-5", 0 ]
								}

							}
 ]
					}
,
					"patching_rect" : [ 778.199951, 774.0, 112.0, 35.0 ],
					"saved_object_attributes" : 					{
						"description" : "",
						"digest" : "",
						"globalpatchername" : "",
						"style" : "",
						"tags" : ""
					}
,
					"style" : "",
					"text" : "p turn amplitude into VIZZIE data"
				}

			}
, 			{
				"box" : 				{
					"color" : [ 0.109078, 0.481945, 0.537541, 1.0 ],
					"id" : "obj-46",
					"linecount" : 2,
					"maxclass" : "newobj",
					"numinlets" : 1,
					"numoutlets" : 1,
					"outlettype" : [ "" ],
					"patcher" : 					{
						"fileversion" : 1,
						"appversion" : 						{
							"major" : 7,
							"minor" : 3,
							"revision" : 5,
							"architecture" : "x86",
							"modernui" : 1
						}
,
						"rect" : [ 34.0, 34.0, 640.0, 480.0 ],
						"bglocked" : 0,
						"openinpresentation" : 0,
						"default_fontsize" : 12.0,
						"default_fontface" : 0,
						"default_fontname" : "Arial",
						"gridonopen" : 1,
						"gridsize" : [ 15.0, 15.0 ],
						"gridsnaponopen" : 1,
						"objectsnaponopen" : 1,
						"statusbarvisible" : 2,
						"toolbarvisible" : 1,
						"lefttoolbarpinned" : 0,
						"toptoolbarpinned" : 0,
						"righttoolbarpinned" : 0,
						"bottomtoolbarpinned" : 0,
						"toolbars_unpinned_last_save" : 0,
						"tallnewobj" : 0,
						"boxanimatetime" : 200,
						"enablehscroll" : 1,
						"enablevscroll" : 1,
						"devicewidth" : 0.0,
						"description" : "",
						"digest" : "",
						"tags" : "",
						"style" : "",
						"subpatcher_template" : "",
						"boxes" : [ 							{
								"box" : 								{
									"id" : "obj-4",
									"maxclass" : "newobj",
									"numinlets" : 2,
									"numoutlets" : 1,
									"outlettype" : [ "signal" ],
									"patching_rect" : [ 45.0, 105.0, 42.0, 22.0 ],
									"style" : "",
									"text" : "*~ 0.5"
								}

							}
, 							{
								"box" : 								{
									"id" : "obj-49",
									"maxclass" : "newobj",
									"numinlets" : 6,
									"numoutlets" : 1,
									"outlettype" : [ "" ],
									"patching_rect" : [ 43.5, 375.0, 99.0, 22.0 ],
									"style" : "",
									"text" : "scale 0. 10. 0. 1."
								}

							}
, 							{
								"box" : 								{
									"format" : 6,
									"id" : "obj-48",
									"maxclass" : "flonum",
									"numinlets" : 1,
									"numoutlets" : 2,
									"outlettype" : [ "", "bang" ],
									"parameter_enable" : 0,
									"patching_rect" : [ 43.5, 330.0, 50.0, 22.0 ],
									"style" : ""
								}

							}
, 							{
								"box" : 								{
									"id" : "obj-47",
									"maxclass" : "newobj",
									"numinlets" : 2,
									"numoutlets" : 1,
									"outlettype" : [ "float" ],
									"patching_rect" : [ 45.0, 285.0, 76.0, 22.0 ],
									"style" : "",
									"text" : "snapshot~ 2"
								}

							}
, 							{
								"box" : 								{
									"id" : "obj-46",
									"maxclass" : "newobj",
									"numinlets" : 1,
									"numoutlets" : 2,
									"outlettype" : [ "signal", "signal" ],
									"patching_rect" : [ 45.0, 240.0, 47.0, 22.0 ],
									"style" : "",
									"text" : "zerox~"
								}

							}
, 							{
								"box" : 								{
									"comment" : "",
									"id" : "obj-1",
									"index" : 1,
									"maxclass" : "inlet",
									"numinlets" : 0,
									"numoutlets" : 1,
									"outlettype" : [ "signal" ],
									"patching_rect" : [ 45.0, 15.0, 30.0, 30.0 ],
									"style" : ""
								}

							}
, 							{
								"box" : 								{
									"comment" : "",
									"id" : "obj-2",
									"index" : 1,
									"maxclass" : "outlet",
									"numinlets" : 1,
									"numoutlets" : 0,
									"patching_rect" : [ 43.5, 420.0, 30.0, 30.0 ],
									"style" : ""
								}

							}
 ],
						"lines" : [ 							{
								"patchline" : 								{
									"destination" : [ "obj-4", 0 ],
									"source" : [ "obj-1", 0 ]
								}

							}
, 							{
								"patchline" : 								{
									"destination" : [ "obj-46", 0 ],
									"source" : [ "obj-4", 0 ]
								}

							}
, 							{
								"patchline" : 								{
									"destination" : [ "obj-47", 0 ],
									"source" : [ "obj-46", 0 ]
								}

							}
, 							{
								"patchline" : 								{
									"destination" : [ "obj-48", 0 ],
									"source" : [ "obj-47", 0 ]
								}

							}
, 							{
								"patchline" : 								{
									"destination" : [ "obj-49", 0 ],
									"source" : [ "obj-48", 0 ]
								}

							}
, 							{
								"patchline" : 								{
									"destination" : [ "obj-2", 0 ],
									"source" : [ "obj-49", 0 ]
								}

							}
 ]
					}
,
					"patching_rect" : [ 629.400024, 774.0, 96.0, 35.0 ],
					"saved_object_attributes" : 					{
						"description" : "",
						"digest" : "",
						"globalpatchername" : "",
						"style" : "",
						"tags" : ""
					}
,
					"style" : "",
					"text" : "p turn timbre into VIZZIE data"
				}

			}
, 			{
				"box" : 				{
					"annotation" : "## VIZZIE linear data generator ##",
					"bgmode" : 1,
					"border" : 0,
					"clickthrough" : 0,
					"enablehscroll" : 0,
					"enablevscroll" : 0,
					"id" : "obj-28",
					"lockeddragscroll" : 0,
					"maxclass" : "bpatcher",
					"name" : "vz.twiddlr.maxpat",
					"numinlets" : 3,
					"numoutlets" : 1,
					"offset" : [ 0.0, 0.0 ],
					"outlettype" : [ "" ],
					"patching_rect" : [ 305.399994, 690.0, 148.0, 112.0 ],
					"prototypename" : "pixl",
					"varname" : "twiddlr",
					"viewvisibility" : 1
				}

			}
, 			{
				"box" : 				{
					"id" : "obj-29",
					"maxclass" : "toggle",
					"numinlets" : 1,
					"numoutlets" : 1,
					"outlettype" : [ "int" ],
					"parameter_enable" : 0,
					"patching_rect" : [ 138.0, 827.0, 24.0, 24.0 ],
					"style" : ""
				}

			}
, 			{
				"box" : 				{
					"id" : "obj-31",
					"maxclass" : "newobj",
					"numinlets" : 2,
					"numoutlets" : 3,
					"outlettype" : [ "signal", "signal", "bang" ],
					"patching_rect" : [ 142.0, 909.0, 182.399994, 22.0 ],
					"saved_object_attributes" : 					{
						"basictuning" : 440,
						"followglobaltempo" : 0,
						"formantcorrection" : 0,
						"mode" : "monophonic",
						"originallength" : [ 87000.625, "ticks" ],
						"originaltempo" : 120.000008,
						"pitchcorrection" : 0,
						"quality" : "basic",
						"timestretch" : [ 1 ]
					}
,
					"style" : "",
					"text" : "sfplay~ 2"
				}

			}
, 			{
				"box" : 				{
					"color" : [ 0.109804, 0.482353, 0.537255, 1.0 ],
					"id" : "obj-33",
					"maxclass" : "newobj",
					"numinlets" : 1,
					"numoutlets" : 1,
					"outlettype" : [ "" ],
					"patcher" : 					{
						"fileversion" : 1,
						"appversion" : 						{
							"major" : 7,
							"minor" : 3,
							"revision" : 5,
							"architecture" : "x86",
							"modernui" : 1
						}
,
						"rect" : [ 84.0, 129.0, 640.0, 480.0 ],
						"bglocked" : 0,
						"openinpresentation" : 0,
						"default_fontsize" : 12.0,
						"default_fontface" : 0,
						"default_fontname" : "Arial",
						"gridonopen" : 1,
						"gridsize" : [ 15.0, 15.0 ],
						"gridsnaponopen" : 1,
						"objectsnaponopen" : 1,
						"statusbarvisible" : 2,
						"toolbarvisible" : 1,
						"lefttoolbarpinned" : 0,
						"toptoolbarpinned" : 0,
						"righttoolbarpinned" : 0,
						"bottomtoolbarpinned" : 0,
						"toolbars_unpinned_last_save" : 0,
						"tallnewobj" : 0,
						"boxanimatetime" : 200,
						"enablehscroll" : 1,
						"enablevscroll" : 1,
						"devicewidth" : 0.0,
						"description" : "",
						"digest" : "",
						"tags" : "",
						"style" : "",
						"subpatcher_template" : "",
						"boxes" : [ 							{
								"box" : 								{
									"id" : "obj-68",
									"maxclass" : "newobj",
									"numinlets" : 6,
									"numoutlets" : 1,
									"outlettype" : [ "" ],
									"patching_rect" : [ 50.0, 155.0, 92.0, 22.0 ],
									"style" : "",
									"text" : "scale 0. 1. 0. 2."
								}

							}
, 							{
								"box" : 								{
									"format" : 6,
									"id" : "obj-67",
									"maxclass" : "flonum",
									"numinlets" : 1,
									"numoutlets" : 2,
									"outlettype" : [ "", "bang" ],
									"parameter_enable" : 0,
									"patching_rect" : [ 50.0, 100.0, 50.0, 22.0 ],
									"style" : ""
								}

							}
, 							{
								"box" : 								{
									"comment" : "",
									"id" : "obj-1",
									"index" : 1,
									"maxclass" : "inlet",
									"numinlets" : 0,
									"numoutlets" : 1,
									"outlettype" : [ "" ],
									"patching_rect" : [ 50.0, 50.0, 30.0, 30.0 ],
									"style" : ""
								}

							}
, 							{
								"box" : 								{
									"comment" : "",
									"id" : "obj-2",
									"index" : 1,
									"maxclass" : "outlet",
									"numinlets" : 1,
									"numoutlets" : 0,
									"patching_rect" : [ 50.0, 202.0, 30.0, 30.0 ],
									"style" : ""
								}

							}
 ],
						"lines" : [ 							{
								"patchline" : 								{
									"destination" : [ "obj-67", 0 ],
									"source" : [ "obj-1", 0 ]
								}

							}
, 							{
								"patchline" : 								{
									"destination" : [ "obj-68", 0 ],
									"source" : [ "obj-67", 0 ]
								}

							}
, 							{
								"patchline" : 								{
									"destination" : [ "obj-2", 0 ],
									"source" : [ "obj-68", 0 ]
								}

							}
 ]
					}
,
					"patching_rect" : [ 305.399994, 855.150024, 244.0, 22.0 ],
					"saved_object_attributes" : 					{
						"description" : "",
						"digest" : "",
						"globalpatchername" : "",
						"style" : "",
						"tags" : ""
					}
,
					"style" : "",
					"text" : "p \"Convert VIZZIE data to time-stretch data\""
				}

			}
, 			{
				"box" : 				{
					"attr" : "timestretch",
					"id" : "obj-36",
					"maxclass" : "attrui",
					"numinlets" : 1,
					"numoutlets" : 1,
					"outlettype" : [ "" ],
					"patching_rect" : [ 11.999992, 695.650024, 206.0, 22.0 ],
					"style" : ""
				}

			}
, 			{
				"box" : 				{
					"attr" : "mode",
					"id" : "obj-37",
					"maxclass" : "attrui",
					"numinlets" : 1,
					"numoutlets" : 1,
					"outlettype" : [ "" ],
					"patching_rect" : [ 11.999992, 739.150024, 206.0, 22.0 ],
					"style" : ""
				}

			}
, 			{
				"box" : 				{
					"attr" : "loop",
					"id" : "obj-39",
					"maxclass" : "attrui",
					"numinlets" : 1,
					"numoutlets" : 1,
					"outlettype" : [ "" ],
					"patching_rect" : [ 11.999992, 784.650024, 206.0, 22.0 ],
					"style" : ""
				}

			}
, 			{
				"box" : 				{
					"annotation" : "## Grab webcam video for VIZZIE fun ##",
					"bgmode" : 1,
					"border" : 0,
					"clickthrough" : 0,
					"enablehscroll" : 0,
					"enablevscroll" : 0,
					"id" : "obj-21",
					"lockeddragscroll" : 0,
					"maxclass" : "bpatcher",
					"name" : "vz.grabbr.maxpat",
					"numinlets" : 2,
					"numoutlets" : 1,
					"offset" : [ 0.0, 0.0 ],
					"outlettype" : [ "jit_matrix" ],
					"patching_rect" : [ 1535.0, 10.0, 346.0, 158.0 ],
					"prototypename" : "pixl",
					"varname" : "grabbr",
					"viewvisibility" : 1
				}

			}
, 			{
				"box" : 				{
					"autosave" : 1,
					"bgmode" : 1,
					"border" : 0,
					"clickthrough" : 0,
					"enablehscroll" : 0,
					"enablevscroll" : 0,
					"id" : "obj-23",
					"lockeddragscroll" : 0,
					"maxclass" : "newobj",
					"numinlets" : 3,
					"numoutlets" : 4,
					"offset" : [ 0.0, 0.0 ],
					"outlettype" : [ "signal", "signal", "", "" ],
					"patching_rect" : [ 1167.0, 690.0, 606.0, 196.0 ],
					"presentation_rect" : [ 15.0, 15.0, 606.0, 196.0 ],
					"saved_attribute_attributes" : 					{
						"valueof" : 						{
							"parameter_invisible" : 1,
							"parameter_longname" : "amxd~",
							"parameter_shortname" : "amxd~",
							"parameter_type" : 3
						}

					}
,
					"saved_object_attributes" : 					{
						"annotation_name" : "",
						"parameter_enable" : 1,
						"patchername" : "Example M4L Instrument.amxd",
						"patchername_fallback" : "C74:/packages/BEAP/Examples/Synthesis Examples/Example M4L Instrument.amxd"
					}
,
					"snapshot" : 					{
						"filetype" : "C74Snapshot",
						"version" : 2,
						"minorversion" : 0,
						"name" : "snapshotlist",
						"origin" : "max~",
						"type" : "list",
						"subtype" : "Undefined",
						"embed" : 1,
						"snapshot" : 						{
							"name" : "Example M4L Instrument.amxd",
							"origname" : "C74:/packages/BEAP/Examples/Synthesis Examples/Example M4L Instrument.amxd",
							"valuedictionary" : 							{
								"parameter_values" : 								{
									"BendRange" : 2.0,
									"Bypass[4]" : 0.0,
									"CV2" : 0.0,
									"CV3" : 0.0,
									"Fatness" : 4.731496,
									"Freq" : 0.6,
									"Linear" : 0.0,
									"Mute" : 0.0,
									"Offset[2]" : 0.0,
									"Quadrants" : 0.0,
									"Response" : 0.0,
									"Waveform" : 0.0,
									"live.text" : 0.0,
									"TimeMode" : 1.0
								}

							}

						}
,
						"snapshotlist" : 						{
							"current_snapshot" : 0,
							"entries" : [ 								{
									"filetype" : "C74Snapshot",
									"version" : 2,
									"minorversion" : 0,
									"name" : "Example M4L Instrument.amxd",
									"origin" : "Example M4L Instrument.amxd",
									"type" : "amxd",
									"subtype" : "Undefined",
									"embed" : 0,
									"snapshot" : 									{
										"name" : "Example M4L Instrument.amxd",
										"origname" : "C74:/packages/BEAP/Examples/Synthesis Examples/Example M4L Instrument.amxd",
										"valuedictionary" : 										{
											"parameter_values" : 											{
												"BendRange" : 2.0,
												"Bypass[4]" : 0.0,
												"CV2" : 0.0,
												"CV3" : 0.0,
												"Fatness" : 4.731496,
												"Freq" : 0.6,
												"Linear" : 0.0,
												"Mute" : 0.0,
												"Offset[2]" : 0.0,
												"Quadrants" : 0.0,
												"Response" : 0.0,
												"Waveform" : 0.0,
												"live.text" : 0.0,
												"TimeMode" : 1.0
											}

										}

									}
,
									"fileref" : 									{
										"name" : "Example M4L Instrument.amxd",
										"filename" : "Example M4L Instrument.amxd.maxsnap",
										"filepath" : "~/Documents/Max 7/Snapshots",
										"filepos" : -1,
										"snapshotfileid" : "6fad581c6704caf79b116603d8226de0"
									}

								}
 ]
						}

					}
,
					"style" : "",
					"text" : "amxd~ \"Example M4L Instrument.amxd\"",
					"varname" : "amxd~",
					"viewvisibility" : 1
				}

			}
, 			{
				"box" : 				{
					"bgmode" : 0,
					"border" : 0,
					"clickthrough" : 0,
					"enablehscroll" : 0,
					"enablevscroll" : 0,
					"extract" : 1,
					"id" : "obj-24",
					"lockeddragscroll" : 0,
					"maxclass" : "bpatcher",
					"name" : "bp.Quantizer-MIDI.maxpat",
					"numinlets" : 1,
					"numoutlets" : 1,
					"offset" : [ 0.0, 0.0 ],
					"outlettype" : [ "int" ],
					"patching_rect" : [ 1167.0, 521.0, 217.0, 117.0 ],
					"varname" : "bp.Quantizer-MIDI",
					"viewvisibility" : 1
				}

			}
, 			{
				"box" : 				{
					"annotation" : "## R, G, and B video to VIZZIE data convertor ##",
					"bgmode" : 1,
					"border" : 0,
					"clickthrough" : 0,
					"enablehscroll" : 0,
					"enablevscroll" : 0,
					"id" : "obj-25",
					"lockeddragscroll" : 0,
					"maxclass" : "bpatcher",
					"name" : "vz.analyzr.maxpat",
					"numinlets" : 2,
					"numoutlets" : 3,
					"offset" : [ 0.0, 0.0 ],
					"outlettype" : [ "", "", "" ],
					"patching_rect" : [ 1167.0, 331.0, 178.0, 113.0 ],
					"prototypename" : "pixl",
					"varname" : "analyzr",
					"viewvisibility" : 1
				}

			}
, 			{
				"box" : 				{
					"annotation" : "## Switch between 2 video inputs ##",
					"bgmode" : 1,
					"border" : 0,
					"clickthrough" : 0,
					"enablehscroll" : 0,
					"enablevscroll" : 0,
					"id" : "obj-34",
					"lockeddragscroll" : 0,
					"maxclass" : "bpatcher",
					"name" : "vz.2switchr.maxpat",
					"numinlets" : 4,
					"numoutlets" : 1,
					"offset" : [ 0.0, 0.0 ],
					"outlettype" : [ "jit_matrix" ],
					"patching_rect" : [ 1167.0, 187.0, 178.0, 130.0 ],
					"prototypename" : "pixl",
					"varname" : "2switchr",
					"viewvisibility" : 1
				}

			}
, 			{
				"box" : 				{
					"annotation" : "## The VIZZIE video player/looper ##",
					"bgmode" : 1,
					"border" : 0,
					"clickthrough" : 0,
					"enablehscroll" : 0,
					"enablevscroll" : 0,
					"id" : "obj-26",
					"lockeddragscroll" : 0,
					"maxclass" : "bpatcher",
					"name" : "vz.playr.maxpat",
					"numinlets" : 5,
					"numoutlets" : 2,
					"offset" : [ 0.0, 0.0 ],
					"outlettype" : [ "jit_matrix", "" ],
					"patching_rect" : [ 1167.0, 10.0, 348.0, 158.0 ],
					"prototypename" : "pixl",
					"varname" : "playr",
					"viewvisibility" : 1
				}

			}
, 			{
				"box" : 				{
					"bgcolor" : [ 0.290196, 0.309804, 0.301961, 1.0 ],
					"color" : [ 0.109804, 0.482353, 0.537255, 1.0 ],
					"id" : "obj-27",
					"maxclass" : "newobj",
					"numinlets" : 3,
					"numoutlets" : 1,
					"outlettype" : [ "int" ],
					"patcher" : 					{
						"fileversion" : 1,
						"appversion" : 						{
							"major" : 7,
							"minor" : 3,
							"revision" : 5,
							"architecture" : "x86",
							"modernui" : 1
						}
,
						"rect" : [ 63.0, 104.0, 640.0, 480.0 ],
						"bglocked" : 0,
						"openinpresentation" : 0,
						"default_fontsize" : 12.0,
						"default_fontface" : 0,
						"default_fontname" : "Arial",
						"gridonopen" : 1,
						"gridsize" : [ 15.0, 15.0 ],
						"gridsnaponopen" : 1,
						"objectsnaponopen" : 1,
						"statusbarvisible" : 2,
						"toolbarvisible" : 1,
						"lefttoolbarpinned" : 0,
						"toptoolbarpinned" : 0,
						"righttoolbarpinned" : 0,
						"bottomtoolbarpinned" : 0,
						"toolbars_unpinned_last_save" : 0,
						"tallnewobj" : 0,
						"boxanimatetime" : 200,
						"enablehscroll" : 1,
						"enablevscroll" : 1,
						"devicewidth" : 0.0,
						"description" : "",
						"digest" : "",
						"tags" : "",
						"style" : "",
						"subpatcher_template" : "",
						"boxes" : [ 							{
								"box" : 								{
									"id" : "obj-1",
									"maxclass" : "newobj",
									"numinlets" : 2,
									"numoutlets" : 1,
									"outlettype" : [ "" ],
									"patching_rect" : [ 50.0, 295.0, 49.0, 22.0 ],
									"style" : "",
									"text" : "qlim 50"
								}

							}
, 							{
								"box" : 								{
									"id" : "obj-90",
									"maxclass" : "newobj",
									"numinlets" : 7,
									"numoutlets" : 2,
									"outlettype" : [ "int", "" ],
									"patching_rect" : [ 50.0, 333.5, 82.0, 22.0 ],
									"style" : "",
									"text" : "midiformat"
								}

							}
, 							{
								"box" : 								{
									"id" : "obj-89",
									"maxclass" : "newobj",
									"numinlets" : 2,
									"numoutlets" : 1,
									"outlettype" : [ "" ],
									"patching_rect" : [ 50.0, 252.5, 39.0, 22.0 ],
									"style" : "",
									"text" : "join 2"
								}

							}
, 							{
								"box" : 								{
									"id" : "obj-88",
									"maxclass" : "newobj",
									"numinlets" : 6,
									"numoutlets" : 1,
									"outlettype" : [ "" ],
									"patching_rect" : [ 277.0, 163.5, 119.0, 22.0 ],
									"style" : "",
									"text" : "scale 0. 1. 500 1000"
								}

							}
, 							{
								"box" : 								{
									"id" : "obj-87",
									"maxclass" : "newobj",
									"numinlets" : 6,
									"numoutlets" : 1,
									"outlettype" : [ "" ],
									"patching_rect" : [ 164.0, 164.5, 105.0, 22.0 ],
									"style" : "",
									"text" : "scale 0. 1. 64 128"
								}

							}
, 							{
								"box" : 								{
									"id" : "obj-86",
									"maxclass" : "newobj",
									"numinlets" : 6,
									"numoutlets" : 1,
									"outlettype" : [ "" ],
									"patching_rect" : [ 50.0, 163.5, 105.0, 22.0 ],
									"style" : "",
									"text" : "scale 0. 1. 42 100"
								}

							}
, 							{
								"box" : 								{
									"id" : "obj-85",
									"maxclass" : "newobj",
									"numinlets" : 3,
									"numoutlets" : 2,
									"outlettype" : [ "float", "float" ],
									"patching_rect" : [ 50.0, 195.5, 246.0, 22.0 ],
									"style" : "",
									"text" : "makenote"
								}

							}
, 							{
								"box" : 								{
									"comment" : "",
									"id" : "obj-13",
									"index" : 1,
									"maxclass" : "inlet",
									"numinlets" : 0,
									"numoutlets" : 1,
									"outlettype" : [ "" ],
									"patching_rect" : [ 50.0, 40.0, 30.0, 30.0 ],
									"style" : ""
								}

							}
, 							{
								"box" : 								{
									"comment" : "",
									"id" : "obj-14",
									"index" : 2,
									"maxclass" : "inlet",
									"numinlets" : 0,
									"numoutlets" : 1,
									"outlettype" : [ "" ],
									"patching_rect" : [ 164.0, 40.0, 30.0, 30.0 ],
									"style" : ""
								}

							}
, 							{
								"box" : 								{
									"comment" : "",
									"id" : "obj-15",
									"index" : 3,
									"maxclass" : "inlet",
									"numinlets" : 0,
									"numoutlets" : 1,
									"outlettype" : [ "" ],
									"patching_rect" : [ 277.0, 40.0, 30.0, 30.0 ],
									"style" : ""
								}

							}
, 							{
								"box" : 								{
									"comment" : "",
									"id" : "obj-17",
									"index" : 1,
									"maxclass" : "outlet",
									"numinlets" : 1,
									"numoutlets" : 0,
									"patching_rect" : [ 50.0, 378.5, 30.0, 30.0 ],
									"style" : ""
								}

							}
 ],
						"lines" : [ 							{
								"patchline" : 								{
									"destination" : [ "obj-90", 0 ],
									"source" : [ "obj-1", 0 ]
								}

							}
, 							{
								"patchline" : 								{
									"destination" : [ "obj-86", 0 ],
									"source" : [ "obj-13", 0 ]
								}

							}
, 							{
								"patchline" : 								{
									"destination" : [ "obj-87", 0 ],
									"source" : [ "obj-14", 0 ]
								}

							}
, 							{
								"patchline" : 								{
									"destination" : [ "obj-88", 0 ],
									"source" : [ "obj-15", 0 ]
								}

							}
, 							{
								"patchline" : 								{
									"destination" : [ "obj-89", 1 ],
									"source" : [ "obj-85", 1 ]
								}

							}
, 							{
								"patchline" : 								{
									"destination" : [ "obj-89", 0 ],
									"source" : [ "obj-85", 0 ]
								}

							}
, 							{
								"patchline" : 								{
									"destination" : [ "obj-85", 0 ],
									"source" : [ "obj-86", 0 ]
								}

							}
, 							{
								"patchline" : 								{
									"destination" : [ "obj-85", 1 ],
									"source" : [ "obj-87", 0 ]
								}

							}
, 							{
								"patchline" : 								{
									"destination" : [ "obj-85", 2 ],
									"source" : [ "obj-88", 0 ]
								}

							}
, 							{
								"patchline" : 								{
									"destination" : [ "obj-1", 0 ],
									"midpoints" : [ 59.5, 277.75, 59.5, 277.75 ],
									"source" : [ "obj-89", 0 ]
								}

							}
, 							{
								"patchline" : 								{
									"destination" : [ "obj-17", 0 ],
									"source" : [ "obj-90", 0 ]
								}

							}
 ]
					}
,
					"patching_rect" : [ 1167.0, 467.0, 184.0, 22.0 ],
					"saved_object_attributes" : 					{
						"description" : "",
						"digest" : "",
						"globalpatchername" : "",
						"style" : "",
						"tags" : ""
					}
,
					"style" : "",
					"text" : "p \"Convert colors to MIDI notes\""
				}

			}
, 			{
				"box" : 				{
					"bgmode" : 0,
					"border" : 0,
					"clickthrough" : 0,
					"enablehscroll" : 0,
					"enablevscroll" : 0,
					"extract" : 1,
					"id" : "obj-1",
					"lockeddragscroll" : 0,
					"maxclass" : "bpatcher",
					"name" : "bp.Stereo.maxpat",
					"numinlets" : 2,
					"numoutlets" : 0,
					"offset" : [ 0.0, 0.0 ],
					"patching_rect" : [ 789.0, 98.800003, 148.0, 116.0 ],
					"varname" : "bp.Stereo[1]",
					"viewvisibility" : 1
				}

			}
, 			{
				"box" : 				{
					"id" : "obj-5",
					"maxclass" : "newobj",
					"numinlets" : 8,
					"numoutlets" : 2,
					"outlettype" : [ "", "" ],
					"patching_rect" : [ 701.0, 591.0, 92.5, 22.0 ],
					"style" : "",
					"text" : "jit.gl.material"
				}

			}
, 			{
				"box" : 				{
					"id" : "obj-8",
					"maxclass" : "newobj",
					"numinlets" : 9,
					"numoutlets" : 2,
					"outlettype" : [ "jit_matrix", "" ],
					"patching_rect" : [ 540.0, 641.0, 103.0, 22.0 ],
					"style" : "",
					"text" : "jit.gl.mesh"
				}

			}
, 			{
				"box" : 				{
					"annotation" : "## Smear a video ##",
					"bgmode" : 1,
					"border" : 0,
					"clickthrough" : 0,
					"enablehscroll" : 0,
					"enablevscroll" : 0,
					"id" : "obj-6",
					"lockeddragscroll" : 0,
					"maxclass" : "bpatcher",
					"name" : "vz.slidr.maxpat",
					"numinlets" : 3,
					"numoutlets" : 1,
					"offset" : [ 0.0, 0.0 ],
					"outlettype" : [ "jit_matrix" ],
					"patching_rect" : [ 540.0, 441.0, 138.0, 130.0 ],
					"prototypename" : "pixl",
					"varname" : "slidr",
					"viewvisibility" : 1
				}

			}
, 			{
				"box" : 				{
					"annotation" : "## Resample and interpolate a video ##",
					"bgmode" : 1,
					"border" : 0,
					"clickthrough" : 0,
					"enablehscroll" : 0,
					"enablevscroll" : 0,
					"id" : "obj-15",
					"lockeddragscroll" : 0,
					"maxclass" : "bpatcher",
					"name" : "vz.interpol8r.maxpat",
					"numinlets" : 5,
					"numoutlets" : 1,
					"offset" : [ 0.0, 0.0 ],
					"outlettype" : [ "jit_matrix" ],
					"patching_rect" : [ 540.0, 285.0, 188.0, 130.0 ],
					"prototypename" : "pixl",
					"varname" : "interpol8r",
					"viewvisibility" : 1
				}

			}
, 			{
				"box" : 				{
					"id" : "obj-7",
					"maxclass" : "toggle",
					"numinlets" : 1,
					"numoutlets" : 1,
					"outlettype" : [ "int" ],
					"parameter_enable" : 0,
					"patching_rect" : [ 540.0, 10.0, 24.0, 24.0 ],
					"style" : ""
				}

			}
, 			{
				"box" : 				{
					"id" : "obj-9",
					"maxclass" : "newobj",
					"numinlets" : 1,
					"numoutlets" : 3,
					"outlettype" : [ "", "bang", "" ],
					"patching_rect" : [ 540.0, 109.400002, 51.0, 22.0 ],
					"style" : "",
					"text" : "jit.world"
				}

			}
, 			{
				"box" : 				{
					"color" : [ 0.109078, 0.481945, 0.537541, 1.0 ],
					"id" : "obj-35",
					"maxclass" : "newobj",
					"numinlets" : 1,
					"numoutlets" : 1,
					"outlettype" : [ "" ],
					"patcher" : 					{
						"fileversion" : 1,
						"appversion" : 						{
							"major" : 7,
							"minor" : 3,
							"revision" : 5,
							"architecture" : "x86",
							"modernui" : 1
						}
,
						"rect" : [ 34.0, 34.0, 640.0, 480.0 ],
						"bglocked" : 0,
						"openinpresentation" : 0,
						"default_fontsize" : 12.0,
						"default_fontface" : 0,
						"default_fontname" : "Arial",
						"gridonopen" : 1,
						"gridsize" : [ 15.0, 15.0 ],
						"gridsnaponopen" : 1,
						"objectsnaponopen" : 1,
						"statusbarvisible" : 2,
						"toolbarvisible" : 1,
						"lefttoolbarpinned" : 0,
						"toptoolbarpinned" : 0,
						"righttoolbarpinned" : 0,
						"bottomtoolbarpinned" : 0,
						"toolbars_unpinned_last_save" : 0,
						"tallnewobj" : 0,
						"boxanimatetime" : 200,
						"enablehscroll" : 1,
						"enablevscroll" : 1,
						"devicewidth" : 0.0,
						"description" : "",
						"digest" : "",
						"tags" : "",
						"style" : "",
						"subpatcher_template" : "",
						"boxes" : [ 							{
								"box" : 								{
									"id" : "obj-1",
									"maxclass" : "newobj",
									"numinlets" : 2,
									"numoutlets" : 1,
									"outlettype" : [ "signal" ],
									"patching_rect" : [ 50.0, 105.0, 42.0, 22.0 ],
									"style" : "",
									"text" : "*~ 0.5"
								}

							}
, 							{
								"box" : 								{
									"format" : 6,
									"id" : "obj-45",
									"maxclass" : "flonum",
									"numinlets" : 1,
									"numoutlets" : 2,
									"outlettype" : [ "", "bang" ],
									"parameter_enable" : 0,
									"patching_rect" : [ 50.0, 185.0, 50.0, 22.0 ],
									"style" : ""
								}

							}
, 							{
								"box" : 								{
									"id" : "obj-44",
									"maxclass" : "newobj",
									"numinlets" : 2,
									"numoutlets" : 1,
									"outlettype" : [ "float" ],
									"patching_rect" : [ 50.0, 150.0, 77.0, 22.0 ],
									"style" : "",
									"text" : "peakamp~ 2"
								}

							}
, 							{
								"box" : 								{
									"comment" : "",
									"id" : "obj-5",
									"index" : 1,
									"maxclass" : "inlet",
									"numinlets" : 0,
									"numoutlets" : 1,
									"outlettype" : [ "signal" ],
									"patching_rect" : [ 50.0, 45.0, 30.0, 30.0 ],
									"style" : ""
								}

							}
, 							{
								"box" : 								{
									"comment" : "",
									"id" : "obj-6",
									"index" : 1,
									"maxclass" : "outlet",
									"numinlets" : 1,
									"numoutlets" : 0,
									"patching_rect" : [ 50.0, 230.0, 30.0, 30.0 ],
									"style" : ""
								}

							}
 ],
						"lines" : [ 							{
								"patchline" : 								{
									"destination" : [ "obj-44", 0 ],
									"source" : [ "obj-1", 0 ]
								}

							}
, 							{
								"patchline" : 								{
									"destination" : [ "obj-45", 0 ],
									"source" : [ "obj-44", 0 ]
								}

							}
, 							{
								"patchline" : 								{
									"destination" : [ "obj-6", 0 ],
									"source" : [ "obj-45", 0 ]
								}

							}
, 							{
								"patchline" : 								{
									"destination" : [ "obj-1", 0 ],
									"source" : [ "obj-5", 0 ]
								}

							}
 ]
					}
,
					"patching_rect" : [ 582.25, 235.199997, 195.0, 22.0 ],
					"saved_object_attributes" : 					{
						"description" : "",
						"digest" : "",
						"globalpatchername" : "",
						"style" : "",
						"tags" : ""
					}
,
					"style" : "",
					"text" : "p \"turn amplitude into VIZZIE data\""
				}

			}
, 			{
				"box" : 				{
					"color" : [ 0.109804, 0.482353, 0.537255, 1.0 ],
					"id" : "obj-32",
					"maxclass" : "newobj",
					"numinlets" : 0,
					"numoutlets" : 1,
					"outlettype" : [ "jit_matrix" ],
					"patcher" : 					{
						"fileversion" : 1,
						"appversion" : 						{
							"major" : 7,
							"minor" : 3,
							"revision" : 5,
							"architecture" : "x86",
							"modernui" : 1
						}
,
						"rect" : [ 237.0, 79.0, 640.0, 480.0 ],
						"bglocked" : 0,
						"openinpresentation" : 0,
						"default_fontsize" : 12.0,
						"default_fontface" : 0,
						"default_fontname" : "Arial",
						"gridonopen" : 1,
						"gridsize" : [ 15.0, 15.0 ],
						"gridsnaponopen" : 1,
						"objectsnaponopen" : 1,
						"statusbarvisible" : 2,
						"toolbarvisible" : 1,
						"lefttoolbarpinned" : 0,
						"toptoolbarpinned" : 0,
						"righttoolbarpinned" : 0,
						"bottomtoolbarpinned" : 0,
						"toolbars_unpinned_last_save" : 0,
						"tallnewobj" : 0,
						"boxanimatetime" : 200,
						"enablehscroll" : 1,
						"enablevscroll" : 1,
						"devicewidth" : 0.0,
						"description" : "",
						"digest" : "",
						"tags" : "",
						"style" : "",
						"subpatcher_template" : "",
						"boxes" : [ 							{
								"box" : 								{
									"id" : "obj-16",
									"maxclass" : "newobj",
									"numinlets" : 1,
									"numoutlets" : 2,
									"outlettype" : [ "jit_matrix", "" ],
									"patching_rect" : [ 50.0, 168.0, 151.0, 22.0 ],
									"style" : "",
									"text" : "jit.matrix 3 float32 100 100"
								}

							}
, 							{
								"box" : 								{
									"id" : "obj-3",
									"maxclass" : "newobj",
									"numinlets" : 1,
									"numoutlets" : 2,
									"outlettype" : [ "jit_matrix", "" ],
									"patching_rect" : [ 50.0, 136.0, 342.0, 22.0 ],
									"style" : "",
									"text" : "jit.gl.gridshape @dim 100 100 @matrixoutput 1 @shape plane"
								}

							}
, 							{
								"box" : 								{
									"comment" : "",
									"id" : "obj-31",
									"index" : 1,
									"maxclass" : "outlet",
									"numinlets" : 1,
									"numoutlets" : 0,
									"patching_rect" : [ 50.0, 215.0, 30.0, 30.0 ],
									"style" : ""
								}

							}
 ],
						"lines" : [ 							{
								"patchline" : 								{
									"destination" : [ "obj-31", 0 ],
									"source" : [ "obj-16", 0 ]
								}

							}
, 							{
								"patchline" : 								{
									"destination" : [ "obj-16", 0 ],
									"source" : [ "obj-3", 0 ]
								}

							}
 ]
					}
,
					"patching_rect" : [ 540.0, 177.0, 121.0, 22.0 ],
					"saved_object_attributes" : 					{
						"description" : "",
						"digest" : "",
						"globalpatchername" : "",
						"style" : "",
						"tags" : ""
					}
,
					"style" : "",
					"text" : "p \"Shape Generator\""
				}

			}
, 			{
				"box" : 				{
					"attr" : "floating",
					"id" : "obj-10",
					"maxclass" : "attrui",
					"numinlets" : 1,
					"numoutlets" : 1,
					"outlettype" : [ "" ],
					"patching_rect" : [ 605.0, 66.400002, 150.0, 22.0 ],
					"style" : ""
				}

			}
, 			{
				"box" : 				{
					"attr" : "erase_color",
					"id" : "obj-13",
					"maxclass" : "attrui",
					"numinlets" : 1,
					"numoutlets" : 1,
					"outlettype" : [ "" ],
					"patching_rect" : [ 605.0, 25.4, 150.0, 22.0 ],
					"style" : ""
				}

			}
, 			{
				"box" : 				{
					"attr" : "mat_diffuse",
					"id" : "obj-14",
					"maxclass" : "attrui",
					"numinlets" : 1,
					"numoutlets" : 1,
					"outlettype" : [ "" ],
					"patching_rect" : [ 701.0, 545.400024, 150.0, 22.0 ],
					"style" : ""
				}

			}
, 			{
				"box" : 				{
					"attr" : "mat_emission",
					"id" : "obj-16",
					"maxclass" : "attrui",
					"numinlets" : 1,
					"numoutlets" : 1,
					"outlettype" : [ "" ],
					"patching_rect" : [ 701.0, 507.399994, 150.0, 22.0 ],
					"style" : ""
				}

			}
, 			{
				"box" : 				{
					"attr" : "poly_mode",
					"id" : "obj-17",
					"maxclass" : "attrui",
					"numinlets" : 1,
					"numoutlets" : 1,
					"outlettype" : [ "" ],
					"patching_rect" : [ 887.0, 558.599976, 176.0, 22.0 ],
					"style" : ""
				}

			}
, 			{
				"box" : 				{
					"attr" : "draw_mode",
					"id" : "obj-18",
					"maxclass" : "attrui",
					"numinlets" : 1,
					"numoutlets" : 1,
					"outlettype" : [ "" ],
					"patching_rect" : [ 887.0, 594.599976, 176.0, 22.0 ],
					"style" : ""
				}

			}
, 			{
				"box" : 				{
					"annotation" : "## VIZZIE data sequence generator ##",
					"bgmode" : 1,
					"border" : 0,
					"clickthrough" : 0,
					"enablehscroll" : 0,
					"enablevscroll" : 0,
					"id" : "obj-20",
					"lockeddragscroll" : 0,
					"maxclass" : "bpatcher",
					"name" : "vz.cyclr.maxpat",
					"numinlets" : 6,
					"numoutlets" : 1,
					"offset" : [ 0.0, 0.0 ],
					"outlettype" : [ "" ],
					"patching_rect" : [ 17.333332, 4.333328, 338.0, 184.0 ],
					"prototypename" : "pixl",
					"varname" : "cyclr",
					"viewvisibility" : 1
				}

			}
, 			{
				"box" : 				{
					"clipheight" : 37.758331,
					"data" : 					{
						"clips" : [ 							{
								"filename" : "cello-f2.aif",
								"filekind" : "audiofile",
								"loop" : 1,
								"content_state" : 								{
									"mode" : [ "basic" ],
									"originallength" : [ 0.0, "ticks" ],
									"slurtime" : [ 0.0 ],
									"basictuning" : [ 440 ],
									"pitchcorrection" : [ 0 ],
									"timestretch" : [ 0 ],
									"quality" : [ "basic" ],
									"originaltempo" : [ 120.0 ],
									"formantcorrection" : [ 0 ],
									"formant" : [ 1.0 ],
									"play" : [ 0 ],
									"originallengthms" : [ 0.0 ],
									"speed" : [ 1.0 ],
									"followglobaltempo" : [ 0 ],
									"pitchshift" : [ 1.0 ]
								}

							}
, 							{
								"filename" : "cherokee.aif",
								"filekind" : "audiofile",
								"loop" : 1,
								"content_state" : 								{
									"mode" : [ "basic" ],
									"originallength" : [ 0.0, "ticks" ],
									"slurtime" : [ 0.0 ],
									"basictuning" : [ 440 ],
									"pitchcorrection" : [ 0 ],
									"timestretch" : [ 0 ],
									"quality" : [ "basic" ],
									"originaltempo" : [ 120.0 ],
									"formantcorrection" : [ 0 ],
									"formant" : [ 1.0 ],
									"play" : [ 0 ],
									"originallengthms" : [ 0.0 ],
									"speed" : [ 1.0 ],
									"followglobaltempo" : [ 0 ],
									"pitchshift" : [ 1.0 ]
								}

							}
, 							{
								"filename" : "drumLoop.aif",
								"filekind" : "audiofile",
								"loop" : 1,
								"content_state" : 								{
									"mode" : [ "basic" ],
									"originallength" : [ 0.0, "ticks" ],
									"slurtime" : [ 0.0 ],
									"basictuning" : [ 440 ],
									"pitchcorrection" : [ 0 ],
									"timestretch" : [ 0 ],
									"quality" : [ "basic" ],
									"originaltempo" : [ 120.0 ],
									"formantcorrection" : [ 0 ],
									"formant" : [ 1.0 ],
									"play" : [ 0 ],
									"originallengthms" : [ 0.0 ],
									"speed" : [ 1.0 ],
									"followglobaltempo" : [ 0 ],
									"pitchshift" : [ 1.0 ]
								}

							}
, 							{
								"filename" : "vibes-a1.aif",
								"filekind" : "audiofile",
								"loop" : 1,
								"content_state" : 								{
									"mode" : [ "basic" ],
									"originallength" : [ 0.0, "ticks" ],
									"slurtime" : [ 0.0 ],
									"basictuning" : [ 440 ],
									"pitchcorrection" : [ 0 ],
									"timestretch" : [ 0 ],
									"quality" : [ "basic" ],
									"originaltempo" : [ 120.0 ],
									"formantcorrection" : [ 0 ],
									"formant" : [ 1.0 ],
									"play" : [ 0 ],
									"originallengthms" : [ 0.0 ],
									"speed" : [ 1.0 ],
									"followglobaltempo" : [ 0 ],
									"pitchshift" : [ 1.0 ]
								}

							}
 ]
					}
,
					"id" : "obj-2",
					"maxclass" : "playlist~",
					"numinlets" : 1,
					"numoutlets" : 5,
					"outlettype" : [ "signal", "signal", "signal", "", "dictionary" ],
					"patching_rect" : [ 17.0, 242.0, 475.666656, 155.033325 ],
					"style" : ""
				}

			}
, 			{
				"box" : 				{
					"color" : [ 0.109804, 0.482353, 0.537255, 1.0 ],
					"id" : "obj-38",
					"maxclass" : "newobj",
					"numinlets" : 1,
					"numoutlets" : 1,
					"outlettype" : [ "int" ],
					"patcher" : 					{
						"fileversion" : 1,
						"appversion" : 						{
							"major" : 7,
							"minor" : 3,
							"revision" : 5,
							"architecture" : "x86",
							"modernui" : 1
						}
,
						"rect" : [ 63.0, 104.0, 640.0, 480.0 ],
						"bglocked" : 0,
						"openinpresentation" : 0,
						"default_fontsize" : 12.0,
						"default_fontface" : 0,
						"default_fontname" : "Arial",
						"gridonopen" : 1,
						"gridsize" : [ 15.0, 15.0 ],
						"gridsnaponopen" : 1,
						"objectsnaponopen" : 1,
						"statusbarvisible" : 2,
						"toolbarvisible" : 1,
						"lefttoolbarpinned" : 0,
						"toptoolbarpinned" : 0,
						"righttoolbarpinned" : 0,
						"bottomtoolbarpinned" : 0,
						"toolbars_unpinned_last_save" : 0,
						"tallnewobj" : 0,
						"boxanimatetime" : 200,
						"enablehscroll" : 1,
						"enablevscroll" : 1,
						"devicewidth" : 0.0,
						"description" : "",
						"digest" : "",
						"tags" : "",
						"style" : "",
						"subpatcher_template" : "",
						"boxes" : [ 							{
								"box" : 								{
									"id" : "obj-6",
									"maxclass" : "newobj",
									"numinlets" : 2,
									"numoutlets" : 1,
									"outlettype" : [ "int" ],
									"patching_rect" : [ 50.0, 175.0, 29.5, 22.0 ],
									"style" : "",
									"text" : "int"
								}

							}
, 							{
								"box" : 								{
									"id" : "obj-1",
									"maxclass" : "newobj",
									"numinlets" : 2,
									"numoutlets" : 1,
									"outlettype" : [ "" ],
									"patching_rect" : [ 50.0, 139.0, 55.0, 22.0 ],
									"style" : "",
									"text" : "round 0."
								}

							}
, 							{
								"box" : 								{
									"id" : "obj-33",
									"maxclass" : "newobj",
									"numinlets" : 6,
									"numoutlets" : 1,
									"outlettype" : [ "" ],
									"patching_rect" : [ 50.0, 100.0, 85.0, 22.0 ],
									"style" : "",
									"text" : "scale 0. 1. 1 4"
								}

							}
, 							{
								"box" : 								{
									"comment" : "",
									"id" : "obj-36",
									"index" : 1,
									"maxclass" : "inlet",
									"numinlets" : 0,
									"numoutlets" : 1,
									"outlettype" : [ "" ],
									"patching_rect" : [ 50.0, 50.0, 30.0, 30.0 ],
									"style" : ""
								}

							}
, 							{
								"box" : 								{
									"comment" : "",
									"id" : "obj-37",
									"index" : 1,
									"maxclass" : "outlet",
									"numinlets" : 1,
									"numoutlets" : 0,
									"patching_rect" : [ 50.0, 220.0, 30.0, 30.0 ],
									"style" : ""
								}

							}
 ],
						"lines" : [ 							{
								"patchline" : 								{
									"destination" : [ "obj-6", 0 ],
									"source" : [ "obj-1", 0 ]
								}

							}
, 							{
								"patchline" : 								{
									"destination" : [ "obj-1", 0 ],
									"source" : [ "obj-33", 0 ]
								}

							}
, 							{
								"patchline" : 								{
									"destination" : [ "obj-33", 0 ],
									"source" : [ "obj-36", 0 ]
								}

							}
, 							{
								"patchline" : 								{
									"destination" : [ "obj-37", 0 ],
									"source" : [ "obj-6", 0 ]
								}

							}
 ]
					}
,
					"patching_rect" : [ 17.333332, 202.53331, 198.0, 22.0 ],
					"saved_object_attributes" : 					{
						"description" : "",
						"digest" : "",
						"globalpatchername" : "",
						"style" : "",
						"tags" : ""
					}
,
					"style" : "",
					"text" : "p \"Convert VIZZIE data to integers\""
				}

			}
, 			{
				"box" : 				{
					"angle" : 270.0,
					"background" : 1,
					"bordercolor" : [ 0.65098, 0.666667, 0.662745, 0.0 ],
					"grad1" : [ 0.65098, 0.666667, 0.662745, 1.0 ],
					"grad2" : [ 0.65098, 0.666667, 0.662745, 1.0 ],
					"id" : "obj-3",
					"maxclass" : "panel",
					"mode" : 1,
					"numinlets" : 1,
					"numoutlets" : 0,
					"patching_rect" : [ 17.333332, 242.233322, 475.333313, 154.800003 ],
					"proportion" : 0.39,
					"rounded" : 0,
					"style" : ""
				}

			}
, 			{
				"box" : 				{
					"angle" : 270.0,
					"background" : 1,
					"bordercolor" : [ 0.65098, 0.666667, 0.662745, 0.0 ],
					"grad1" : [ 0.65098, 0.666667, 0.662745, 1.0 ],
					"grad2" : [ 0.65098, 0.666667, 0.662745, 1.0 ],
					"id" : "obj-11",
					"maxclass" : "panel",
					"mode" : 1,
					"numinlets" : 1,
					"numoutlets" : 0,
					"patching_rect" : [ 17.333332, 418.933319, 148.0, 116.0 ],
					"proportion" : 0.39,
					"rounded" : 0,
					"style" : ""
				}

			}
, 			{
				"box" : 				{
					"angle" : 270.0,
					"background" : 1,
					"bordercolor" : [ 0.65098, 0.666667, 0.662745, 0.0 ],
					"grad1" : [ 0.65098, 0.666667, 0.662745, 1.0 ],
					"grad2" : [ 0.65098, 0.666667, 0.662745, 1.0 ],
					"id" : "obj-12",
					"maxclass" : "panel",
					"mode" : 1,
					"numinlets" : 1,
					"numoutlets" : 0,
					"patching_rect" : [ 17.333332, 4.333328, 338.0, 184.0 ],
					"proportion" : 0.39,
					"rounded" : 0,
					"style" : ""
				}

			}
 ],
		"lines" : [ 			{
				"patchline" : 				{
					"destination" : [ "obj-9", 0 ],
					"source" : [ "obj-10", 0 ]
				}

			}
, 			{
				"patchline" : 				{
					"destination" : [ "obj-9", 0 ],
					"source" : [ "obj-13", 0 ]
				}

			}
, 			{
				"patchline" : 				{
					"destination" : [ "obj-5", 0 ],
					"source" : [ "obj-14", 0 ]
				}

			}
, 			{
				"patchline" : 				{
					"destination" : [ "obj-6", 0 ],
					"source" : [ "obj-15", 0 ]
				}

			}
, 			{
				"patchline" : 				{
					"destination" : [ "obj-5", 0 ],
					"source" : [ "obj-16", 0 ]
				}

			}
, 			{
				"patchline" : 				{
					"destination" : [ "obj-8", 0 ],
					"source" : [ "obj-17", 0 ]
				}

			}
, 			{
				"patchline" : 				{
					"destination" : [ "obj-8", 0 ],
					"source" : [ "obj-18", 0 ]
				}

			}
, 			{
				"patchline" : 				{
					"destination" : [ "obj-1", 1 ],
					"order" : 3,
					"source" : [ "obj-2", 1 ]
				}

			}
, 			{
				"patchline" : 				{
					"destination" : [ "obj-1", 0 ],
					"order" : 3,
					"source" : [ "obj-2", 0 ]
				}

			}
, 			{
				"patchline" : 				{
					"destination" : [ "obj-35", 0 ],
					"order" : 2,
					"source" : [ "obj-2", 1 ]
				}

			}
, 			{
				"patchline" : 				{
					"destination" : [ "obj-35", 0 ],
					"order" : 2,
					"source" : [ "obj-2", 0 ]
				}

			}
, 			{
				"patchline" : 				{
					"destination" : [ "obj-45", 0 ],
					"order" : 0,
					"source" : [ "obj-2", 1 ]
				}

			}
, 			{
				"patchline" : 				{
					"destination" : [ "obj-45", 0 ],
					"order" : 0,
					"source" : [ "obj-2", 0 ]
				}

			}
, 			{
				"patchline" : 				{
					"destination" : [ "obj-46", 0 ],
					"order" : 1,
					"source" : [ "obj-2", 1 ]
				}

			}
, 			{
				"patchline" : 				{
					"destination" : [ "obj-46", 0 ],
					"order" : 1,
					"source" : [ "obj-2", 0 ]
				}

			}
, 			{
				"patchline" : 				{
					"destination" : [ "obj-38", 0 ],
					"source" : [ "obj-20", 0 ]
				}

			}
, 			{
				"patchline" : 				{
					"destination" : [ "obj-34", 1 ],
					"source" : [ "obj-21", 0 ]
				}

			}
, 			{
				"patchline" : 				{
					"destination" : [ "obj-23", 2 ],
					"source" : [ "obj-24", 0 ]
				}

			}
, 			{
				"patchline" : 				{
					"destination" : [ "obj-27", 2 ],
					"source" : [ "obj-25", 2 ]
				}

			}
, 			{
				"patchline" : 				{
					"destination" : [ "obj-27", 1 ],
					"source" : [ "obj-25", 1 ]
				}

			}
, 			{
				"patchline" : 				{
					"destination" : [ "obj-27", 0 ],
					"source" : [ "obj-25", 0 ]
				}

			}
, 			{
				"patchline" : 				{
					"destination" : [ "obj-34", 0 ],
					"order" : 1,
					"source" : [ "obj-26", 0 ]
				}

			}
, 			{
				"patchline" : 				{
					"destination" : [ "obj-45", 0 ],
					"order" : 0,
					"source" : [ "obj-26", 0 ]
				}

			}
, 			{
				"patchline" : 				{
					"destination" : [ "obj-24", 0 ],
					"source" : [ "obj-27", 0 ]
				}

			}
, 			{
				"patchline" : 				{
					"destination" : [ "obj-33", 0 ],
					"source" : [ "obj-28", 0 ]
				}

			}
, 			{
				"patchline" : 				{
					"destination" : [ "obj-31", 0 ],
					"source" : [ "obj-29", 0 ]
				}

			}
, 			{
				"patchline" : 				{
					"destination" : [ "obj-15", 0 ],
					"source" : [ "obj-32", 0 ]
				}

			}
, 			{
				"patchline" : 				{
					"destination" : [ "obj-31", 1 ],
					"source" : [ "obj-33", 0 ]
				}

			}
, 			{
				"patchline" : 				{
					"destination" : [ "obj-25", 0 ],
					"source" : [ "obj-34", 0 ]
				}

			}
, 			{
				"patchline" : 				{
					"destination" : [ "obj-15", 1 ],
					"source" : [ "obj-35", 0 ]
				}

			}
, 			{
				"patchline" : 				{
					"destination" : [ "obj-31", 0 ],
					"source" : [ "obj-36", 0 ]
				}

			}
, 			{
				"patchline" : 				{
					"destination" : [ "obj-31", 0 ],
					"source" : [ "obj-37", 0 ]
				}

			}
, 			{
				"patchline" : 				{
					"destination" : [ "obj-2", 0 ],
					"source" : [ "obj-38", 0 ]
				}

			}
, 			{
				"patchline" : 				{
					"destination" : [ "obj-31", 0 ],
					"source" : [ "obj-39", 0 ]
				}

			}
, 			{
				"patchline" : 				{
					"destination" : [ "obj-42", 0 ],
					"source" : [ "obj-43", 0 ]
				}

			}
, 			{
				"patchline" : 				{
					"destination" : [ "obj-43", 0 ],
					"source" : [ "obj-44", 0 ]
				}

			}
, 			{
				"patchline" : 				{
					"destination" : [ "obj-43", 2 ],
					"order" : 0,
					"source" : [ "obj-45", 0 ]
				}

			}
, 			{
				"patchline" : 				{
					"destination" : [ "obj-44", 8 ],
					"order" : 1,
					"source" : [ "obj-45", 0 ]
				}

			}
, 			{
				"patchline" : 				{
					"destination" : [ "obj-44", 0 ],
					"order" : 2,
					"source" : [ "obj-45", 0 ]
				}

			}
, 			{
				"patchline" : 				{
					"destination" : [ "obj-44", 7 ],
					"source" : [ "obj-46", 0 ]
				}

			}
, 			{
				"patchline" : 				{
					"destination" : [ "obj-8", 0 ],
					"source" : [ "obj-5", 0 ]
				}

			}
, 			{
				"patchline" : 				{
					"destination" : [ "obj-8", 0 ],
					"source" : [ "obj-6", 0 ]
				}

			}
, 			{
				"patchline" : 				{
					"destination" : [ "obj-9", 0 ],
					"source" : [ "obj-7", 0 ]
				}

			}
 ],
		"parameters" : 		{
			"obj-15::obj-41" : [ "pictctrl[6]", "pictctrl[1]", 0 ],
			"obj-44::obj-121" : [ "x offset[1]", "x offset", 0 ],
			"obj-15::obj-17" : [ "range[1]", "range", 0 ],
			"obj-25::obj-1" : [ "textbutton[2]", "textbutton[1]", 0 ],
			"obj-28::obj-72" : [ "FreqMode[4]", "FreqMode", 0 ],
			"obj-44::obj-131" : [ "pictctrl[266]", "pictctrl[1]", 0 ],
			"obj-20::obj-74" : [ "pictctrl[172]", "pictctrl[1]", 0 ],
			"obj-44::obj-263" : [ "SpectraLFOShape[4]", "Shape", 0 ],
			"obj-24::obj-10::obj-2" : [ "pastebang", "pastebang", 0 ],
			"obj-28::obj-30" : [ "pictctrl[97]", "pictctrl[1]", 0 ],
			"obj-44::obj-46" : [ "x scale", "x scale", 0 ],
			"obj-20::obj-109" : [ "pictctrl[164]", "pictctrl[1]", 0 ],
			"obj-44::obj-29" : [ "live.toggle[6]", "live.toggle", 0 ],
			"obj-20::obj-67" : [ "pictctrl[170]", "pictctrl[1]", 0 ],
			"obj-6::obj-1" : [ "slide down", "slide down", 0 ],
			"obj-25::obj-19" : [ "pictctrl[35]", "pictctrl[1]", 0 ],
			"obj-26::obj-112::obj-119" : [ "speed[1]", "speed", 0 ],
			"obj-43::obj-53" : [ "pictctrl[21]", "pictctrl", 0 ],
			"obj-25::obj-17" : [ "pictctrl[36]", "pictctrl[1]", 0 ],
			"obj-15::obj-94" : [ "umenu[1]", "umenu", 0 ],
			"obj-21::obj-49" : [ "range[2]", "range", 0 ],
			"obj-21::obj-38" : [ "pictctrl[2]", "pictctrl[1]", 0 ],
			"obj-28::obj-41" : [ "pictctrl[96]", "pictctrl[1]", 0 ],
			"obj-20::obj-22" : [ "speed[4]", "speed", 0 ],
			"obj-15::obj-24" : [ "vertical", "vertical", 0 ],
			"obj-24::obj-92" : [ "kslider", "kslider", 0 ],
			"obj-20::obj-41" : [ "number[3]", "number", 0 ],
			"obj-43::obj-35" : [ "umenu[18]", "umenu", 0 ],
			"obj-21::obj-39" : [ "pictctrl[1]", "pictctrl[1]", 0 ],
			"obj-23" : [ "amxd~", "amxd~", 0 ],
			"obj-44::obj-67" : [ "z offset", "z offset", 0 ],
			"obj-25::obj-6" : [ "pictctrl[37]", "pictctrl[1]", 0 ],
			"obj-15::obj-68" : [ "horizontal", "horizontal", 0 ],
			"obj-42::obj-37" : [ "umenu[3]", "umenu", 0 ],
			"obj-43::obj-21" : [ "FreqMode[23]", "FreqMode", 0 ],
			"obj-6::obj-50" : [ "slide up", "slide up", 0 ],
			"obj-15::obj-53" : [ "pictctrl[8]", "pictctrl[1]", 0 ],
			"obj-43::obj-23" : [ "FreqMode[24]", "FreqMode", 0 ],
			"obj-44::obj-40" : [ "table size", "table size", 0 ],
			"obj-20::obj-1" : [ "multislider[1]", "multislider", 0 ],
			"obj-43::obj-49" : [ "pictctrl[23]", "pictctrl", 0 ],
			"obj-44::obj-278" : [ "textbutton[13]", "textbutton[1]", 0 ],
			"obj-34::obj-59" : [ "pictctrl[42]", "pictctrl[1]", 0 ],
			"obj-20::obj-85" : [ "number[2]", "number[1]", 0 ],
			"obj-15::obj-47" : [ "pictctrl[7]", "pictctrl[1]", 0 ],
			"obj-15::obj-54" : [ "umenu[6]", "umenu", 0 ],
			"obj-43::obj-26" : [ "umenu[16]", "umenu", 0 ],
			"obj-44::obj-92" : [ "pictctrl[276]", "pictctrl[1]", 0 ],
			"obj-1::obj-56" : [ "OutputChannel[1]", "OutputChannel", 0 ],
			"obj-20::obj-10" : [ "smoothing", "smoothing", 0 ],
			"obj-34::obj-22" : [ "pictctrl[12]", "pictctrl[1]", 0 ],
			"obj-26::obj-112::obj-16" : [ "rslider[2]", "rslider[2]", 0 ],
			"obj-15::obj-51" : [ "pictctrl[5]", "pictctrl[1]", 0 ],
			"obj-28::obj-43" : [ "pictctrl[95]", "pictctrl[1]", 0 ],
			"obj-1::obj-22" : [ "Mute[1]", "Mute", 0 ],
			"obj-6::obj-21" : [ "pictctrl[4]", "pictctrl[1]", 0 ],
			"obj-25::obj-46" : [ "pictctrl[34]", "pictctrl[1]", 0 ],
			"obj-26::obj-112::obj-89" : [ "FreqMode[12]", "FreqMode", 0 ],
			"obj-6::obj-6" : [ "range[4]", "range", 0 ],
			"obj-24::obj-48" : [ "InputLED", "InputLED", 0 ],
			"obj-34::obj-41" : [ "pictctrl[14]", "pictctrl[1]", 0 ],
			"obj-26::obj-112::obj-120" : [ "range", "range", 0 ],
			"obj-44::obj-129" : [ "pictctrl[267]", "pictctrl[1]", 0 ],
			"obj-20::obj-30" : [ "pictctrl[166]", "pictctrl[1]", 0 ],
			"obj-21::obj-64::obj-40" : [ "umenu[2]", "umenu", 0 ],
			"obj-44::obj-130" : [ "pictctrl[268]", "pictctrl[1]", 0 ],
			"obj-44::obj-39" : [ "seed", "seed", 0 ],
			"obj-34::obj-25" : [ "breakpoint[2]", "breakpoint", 0 ],
			"obj-44::obj-127" : [ "pictctrl[269]", "pictctrl[1]", 0 ],
			"obj-44::obj-44" : [ "z scale", "z scale", 0 ],
			"obj-34::obj-36" : [ "selector[2]", "selector", 0 ],
			"obj-44::obj-128" : [ "pictctrl[270]", "pictctrl[1]", 0 ],
			"obj-1::obj-55" : [ "DSP[1]", "DSP", 0 ],
			"obj-24::obj-12" : [ "bypass", "bypass", 0 ],
			"obj-28::obj-65" : [ "speed[2]", "speed", 0 ],
			"obj-44::obj-125" : [ "pictctrl[271]", "pictctrl[1]", 0 ],
			"obj-28::obj-12" : [ "pictctrl[98]", "pictctrl[1]", 0 ],
			"obj-44::obj-126" : [ "pictctrl[272]", "pictctrl[1]", 0 ],
			"obj-43::obj-28" : [ "umenu[17]", "umenu", 0 ],
			"obj-43::obj-12" : [ "pictctrl[22]", "pictctrl", 0 ],
			"obj-44::obj-123" : [ "pictctrl[273]", "pictctrl[1]", 0 ],
			"obj-20::obj-57" : [ "FreqMode[3]", "FreqMode", 0 ],
			"obj-26::obj-28" : [ "pictctrl[279]", "pictctrl[1]", 0 ],
			"obj-44::obj-124" : [ "pictctrl[274]", "pictctrl[1]", 0 ],
			"obj-44::obj-55" : [ "y offest", "y offset", 0 ],
			"obj-26::obj-83" : [ "pictctrl[280]", "pictctrl[1]", 0 ],
			"obj-44::obj-122" : [ "pictctrl[275]", "pictctrl[1]", 0 ],
			"obj-20::obj-94" : [ "pictctrl[169]", "pictctrl[1]", 0 ],
			"obj-26::obj-81" : [ "pictctrl[281]", "pictctrl[1]", 0 ],
			"obj-20::obj-117" : [ "textbutton[10]", "textbutton[1]", 0 ],
			"obj-34::obj-24" : [ "range[5]", "range", 0 ],
			"obj-26::obj-60" : [ "pictctrl[282]", "pictctrl[1]", 0 ],
			"obj-24::obj-29" : [ "OutputLED", "OutputLED", 0 ],
			"obj-34::obj-51" : [ "pictctrl[13]", "pictctrl[1]", 0 ],
			"obj-26::obj-40" : [ "pictctrl[283]", "pictctrl[1]", 0 ],
			"obj-26::obj-112::obj-94" : [ "textbutton[3]", "textbutton", 0 ],
			"obj-26::obj-64" : [ "pictctrl[284]", "pictctrl[1]", 0 ],
			"obj-20::obj-21" : [ "pictctrl[171]", "pictctrl[1]", 0 ],
			"obj-20::obj-19" : [ "pictctrl[165]", "pictctrl[1]", 0 ],
			"obj-20::obj-7" : [ "live.toggle", "live.toggle", 0 ],
			"obj-26::obj-112::obj-121" : [ "speed", "speed", 0 ],
			"obj-21::obj-64::obj-56" : [ "textbutton", "textbutton", 0 ],
			"obj-26::obj-112::obj-79" : [ "slider[3]", "slider[2]", 0 ],
			"obj-44::obj-45" : [ "y scale", "y scale", 0 ],
			"obj-24::obj-100" : [ "score", "score", 0 ],
			"obj-20::obj-113" : [ "pictctrl[163]", "pictctrl[1]", 0 ],
			"obj-1::obj-52" : [ "Level[1]", "Level", 0 ],
			"obj-28::obj-1" : [ "textbutton[4]", "textbutton[1]", 0 ],
			"obj-43::obj-1" : [ "range[6]", "range", 0 ],
			"obj-44::obj-27" : [ "live.toggle[5]", "live.toggle", 0 ],
			"obj-28::obj-74" : [ "umenu[10]", "umenu", 0 ],
			"obj-6::obj-28" : [ "pictctrl[3]", "pictctrl[1]", 0 ],
			"obj-26::obj-112::obj-92" : [ "FreqMode[13]", "FreqMode", 0 ],
			"obj-43::obj-59" : [ "FreqMode[25]", "FreqMode", 0 ]
		}
,
		"dependency_cache" : [ 			{
				"name" : "cello-f2.aif",
				"bootpath" : "C74:/media/msp",
				"type" : "AIFF",
				"implicit" : 1
			}
, 			{
				"name" : "cherokee.aif",
				"bootpath" : "C74:/media/msp",
				"type" : "AIFF",
				"implicit" : 1
			}
, 			{
				"name" : "drumLoop.aif",
				"bootpath" : "C74:/media/msp",
				"type" : "AIFF",
				"implicit" : 1
			}
, 			{
				"name" : "vibes-a1.aif",
				"bootpath" : "C74:/media/msp",
				"type" : "AIFF",
				"implicit" : 1
			}
, 			{
				"name" : "vz.cyclr.maxpat",
				"bootpath" : "C74:/packages/vizzie/patchers",
				"type" : "JSON",
				"implicit" : 1
			}
, 			{
				"name" : "data-handler.maxpat",
				"bootpath" : "C74:/packages/vizzie/patchers",
				"type" : "JSON",
				"implicit" : 1
			}
, 			{
				"name" : "data-handler-L.maxpat",
				"bootpath" : "C74:/packages/vizzie/patchers",
				"type" : "JSON",
				"implicit" : 1
			}
, 			{
				"name" : "vz.interpol8r.maxpat",
				"bootpath" : "C74:/packages/vizzie/patchers",
				"type" : "JSON",
				"implicit" : 1
			}
, 			{
				"name" : "video-handler.maxpat",
				"bootpath" : "C74:/packages/vizzie/patchers",
				"type" : "JSON",
				"implicit" : 1
			}
, 			{
				"name" : "vz.slidr.maxpat",
				"bootpath" : "C74:/packages/vizzie/patchers",
				"type" : "JSON",
				"implicit" : 1
			}
, 			{
				"name" : "bp.Stereo.maxpat",
				"bootpath" : "C74:/packages/BEAP/clippings/BEAP/Output",
				"type" : "JSON",
				"implicit" : 1
			}
, 			{
				"name" : "vz.playr.maxpat",
				"bootpath" : "C74:/packages/vizzie/patchers",
				"type" : "JSON",
				"implicit" : 1
			}
, 			{
				"name" : "playr-handler.maxpat",
				"bootpath" : "C74:/packages/vizzie/patchers",
				"type" : "JSON",
				"implicit" : 1
			}
, 			{
				"name" : "playr_controls.maxpat",
				"bootpath" : "C74:/packages/vizzie/patchers",
				"type" : "JSON",
				"implicit" : 1
			}
, 			{
				"name" : "diminit.maxpat",
				"bootpath" : "C74:/packages/vizzie/patchers",
				"type" : "JSON",
				"implicit" : 1
			}
, 			{
				"name" : "dinit.js",
				"bootpath" : "C74:/packages/vizzie/patchers",
				"type" : "TEXT",
				"implicit" : 1
			}
, 			{
				"name" : "vz.2switchr.maxpat",
				"bootpath" : "C74:/packages/vizzie/patchers",
				"type" : "JSON",
				"implicit" : 1
			}
, 			{
				"name" : "videothru-handler.maxpat",
				"bootpath" : "C74:/packages/vizzie/patchers",
				"type" : "JSON",
				"implicit" : 1
			}
, 			{
				"name" : "mixvid-handler-b.maxpat",
				"bootpath" : "C74:/packages/vizzie/patchers",
				"type" : "JSON",
				"implicit" : 1
			}
, 			{
				"name" : "vz.analyzr.maxpat",
				"bootpath" : "C74:/packages/vizzie/patchers",
				"type" : "JSON",
				"implicit" : 1
			}
, 			{
				"name" : "bp.Quantizer-MIDI.maxpat",
				"bootpath" : "C74:/packages/BEAP/clippings/BEAP/MIDI",
				"type" : "JSON",
				"implicit" : 1
			}
, 			{
				"name" : "pastebang.maxpat",
				"bootpath" : "C74:/packages/BEAP/misc",
				"type" : "JSON",
				"implicit" : 1
			}
, 			{
				"name" : "Example M4L Instrument.amxd.maxsnap",
				"bootpath" : "~/Documents/Max 7/Snapshots",
				"patcherrelativepath" : "../Documents/Max 7/Snapshots",
				"type" : "mx@s",
				"implicit" : 1
			}
, 			{
				"name" : "Example M4L Instrument.amxd",
				"bootpath" : "C74:/packages/BEAP/Examples/Synthesis Examples",
				"type" : "amxd",
				"implicit" : 1
			}
, 			{
				"name" : "vz.grabbr.maxpat",
				"bootpath" : "C74:/packages/vizzie/patchers",
				"type" : "JSON",
				"implicit" : 1
			}
, 			{
				"name" : "grabbr_controls.maxpat",
				"bootpath" : "C74:/packages/vizzie/patchers",
				"type" : "JSON",
				"implicit" : 1
			}
, 			{
				"name" : "vz.twiddlr.maxpat",
				"bootpath" : "C74:/packages/vizzie/patchers",
				"type" : "JSON",
				"implicit" : 1
			}
, 			{
				"name" : "vz.patternizr.maxpat",
				"bootpath" : "C74:/packages/vizzie/patchers",
				"type" : "JSON",
				"implicit" : 1
			}
, 			{
				"name" : "vz.mappr.maxpat",
				"bootpath" : "C74:/packages/vizzie/patchers",
				"type" : "JSON",
				"implicit" : 1
			}
, 			{
				"name" : "vz.viewr.maxpat",
				"bootpath" : "C74:/packages/vizzie/patchers",
				"type" : "JSON",
				"implicit" : 1
			}
, 			{
				"name" : "snapshot_UI.maxpat",
				"bootpath" : "C74:/packages/vizzie/patchers",
				"type" : "JSON",
				"implicit" : 1
			}
, 			{
				"name" : "windowresize.js",
				"bootpath" : "C74:/packages/vizzie/patchers",
				"type" : "TEXT",
				"implicit" : 1
			}
 ],
		"autosave" : 0,
		"toolbaradditions" : [ "audiomute" ],
		"toolbarexclusions" : [ "audiomute" ]
	}

}
